<svg width="16" height="13" viewBox="0 0 16 13" fill="none" xmlns="http://www.w3.org/2000/svg">
<path d="M15 2H11V1C11 0.45 10.55 0 10 0H6C5.45 0 5 0.45 5 1V2H1C0.45 2 0 2.45 0 3V12C0 12.55 0.45 13 1 13H15C15.55 13 16 12.55 16 12V3C16 2.45 15.55 2 15 2ZM6 1.002C6.001 1.001 6.001 1.001 6.002 1H9.998C9.999 1.001 9.999 1.001 10 1.002V2H6V1.002ZM15 6H13V7.5C13 7.775 12.775 8 12.5 8H11.5C11.225 8 11 7.775 11 7.5V6H5V7.5C5 7.775 4.775 8 4.5 8H3.5C3.225 8 3 7.775 3 7.5V6H1V5H15V6Z" fill="#2C4E82"/>
</svg>
